<svg xmlns="http://www.w3.org/2000/svg" viewBox="0 0 400 120">
  <rect width="400" height="120" fill="#060b14"/>
  <line x1="0" y1="30" x2="400" y2="30" stroke="#0c1a2e" stroke-width="1"/>
  <line x1="0" y1="60" x2="400" y2="60" stroke="#0c1a2e" stroke-width="1"/>
  <line x1="0" y1="90" x2="400" y2="90" stroke="#0c1a2e" stroke-width="1"/>
  <line x1="100" y1="0" x2="100" y2="120" stroke="#0c1a2e" stroke-width="1"/>
  <line x1="200" y1="0" x2="200" y2="120" stroke="#0c1a2e" stroke-width="1"/>
  <line x1="300" y1="0" x2="300" y2="120" stroke="#0c1a2e" stroke-width="1"/>
  <rect x="45" y="6" width="310" height="108" rx="2" fill="#050916" stroke="#1d4ed8" stroke-width="1.5" opacity="0.9"/>
  <rect x="53" y="13" width="294" height="26" rx="1" fill="#1d4ed8" opacity="0.12" stroke="#3b82f6" stroke-width="1"/>
  <text x="200" y="30" text-anchor="middle" font-size="9" fill="#60a5fa" font-family="monospace" letter-spacing="2">HEADER</text>
  <rect x="53" y="44" width="294" height="46" rx="1" fill="none" stroke="#4f46e5" stroke-width="1"/>
  <text x="200" y="40" text-anchor="middle" font-size="7" fill="#818cf8" font-family="monospace" letter-spacing="1">LINE ITEMS</text>
  <line x1="53" y1="56" x2="347" y2="56" stroke="#4f46e5" stroke-width="0.5" opacity="0.6"/>
  <line x1="53" y1="67" x2="347" y2="67" stroke="#4f46e5" stroke-width="0.5" opacity="0.5"/>
  <line x1="53" y1="78" x2="347" y2="78" stroke="#4f46e5" stroke-width="0.5" opacity="0.5"/>
  <line x1="200" y1="44" x2="200" y2="90" stroke="#4f46e5" stroke-width="0.5" opacity="0.3"/>
  <line x1="285" y1="44" x2="285" y2="90" stroke="#4f46e5" stroke-width="0.5" opacity="0.3"/>
  <rect x="220" y="97" width="127" height="12" rx="1" fill="#4f46e5" opacity="0.2" stroke="#6366f1" stroke-width="1"/>
  <text x="283" y="107" text-anchor="middle" font-size="8" fill="#a5b4fc" font-family="monospace" letter-spacing="2">TOTAL</text>
  <line x1="45" y1="11" x2="60" y2="11" stroke="#06b6d4" stroke-width="2"/>
  <line x1="45" y1="11" x2="45" y2="26" stroke="#06b6d4" stroke-width="2"/>
  <line x1="355" y1="11" x2="340" y2="11" stroke="#06b6d4" stroke-width="2"/>
  <line x1="355" y1="11" x2="355" y2="26" stroke="#06b6d4" stroke-width="2"/>
  <line x1="45" y1="109" x2="60" y2="109" stroke="#06b6d4" stroke-width="2"/>
  <line x1="45" y1="109" x2="45" y2="94" stroke="#06b6d4" stroke-width="2"/>
  <line x1="355" y1="109" x2="340" y2="109" stroke="#06b6d4" stroke-width="2"/>
  <line x1="355" y1="109" x2="355" y2="94" stroke="#06b6d4" stroke-width="2"/>
</svg>
